<svg width="28" height="25" viewBox="0 0 28 25" fill="none" xmlns="http://www.w3.org/2000/svg">
<path d="M14.2985 0.559309C13.4633 0.49965 12.5922 0.690559 11.8167 1.14397C11.3185 1.42923 10.8814 1.81002 10.5307 2.26452C10.18 2.71902 9.92239 3.23828 9.77274 3.79252C9.6231 4.34677 9.58433 4.92511 9.65865 5.49437C9.73297 6.06364 9.91893 6.61263 10.2059 7.10988L18.9638 22.2633C20.1689 24.3633 22.8417 25.0553 24.9417 23.8622C27.0297 22.669 27.7218 19.9843 26.5286 17.8962L17.7945 2.74283C17.4338 2.12159 16.9267 1.59791 16.3174 1.21735C15.7081 0.8368 15.015 0.610899 14.2985 0.559309V0.559309ZM7.8195 6.87124L1.47177 17.8962C1.08498 18.5592 0.879243 19.3122 0.875183 20.0798C0.875183 20.6548 0.988449 21.2242 1.20851 21.7555C1.42858 22.2868 1.75113 22.7695 2.15776 23.1762C2.56438 23.5828 3.04712 23.9054 3.5784 24.1254C4.10968 24.3455 4.6791 24.4587 5.25416 24.4587C6.02173 24.4564 6.7752 24.2523 7.43905 23.867C8.1029 23.4817 8.65381 22.9286 9.03655 22.2633V22.2752L12.807 15.7366C11.1962 12.9923 9.54961 10.2599 8.07007 7.43204C7.97461 7.25306 7.89109 7.06215 7.83143 6.87124H7.8195ZM7.8195 6.87124L19.2502 4.77124L7.8195 6.87124Z" fill="black"/>
</svg>
