<svg width="22" height="22" viewBox="0 0 22 22" fill="none" xmlns="http://www.w3.org/2000/svg">
<path d="M8.67523 0.29501C8.61445 0.29345 8.55398 0.304122 8.4974 0.326392C8.44083 0.348662 8.38931 0.382076 8.3459 0.424649C8.30249 0.467222 8.26808 0.518085 8.24472 0.574216C8.22136 0.630348 8.20951 0.690603 8.20989 0.751402V2.52328C8.20989 2.77385 8.40677 2.97072 8.65733 2.97072V2.98862C14.2325 3.20339 18.7159 7.68677 18.9306 13.2619H18.9485C18.9485 13.5125 19.1454 13.7094 19.396 13.7094H21.1678C21.4274 13.7094 21.6332 13.4946 21.6242 13.244C21.3826 6.21021 15.709 0.53663 8.67523 0.29501V0.29501ZM8.67523 4.76944C8.61468 4.76873 8.55458 4.77999 8.49839 4.80256C8.44219 4.82514 8.39101 4.85859 8.34777 4.90099C8.30454 4.94339 8.2701 4.99392 8.24644 5.04966C8.22278 5.10541 8.21036 5.16528 8.20989 5.22583V6.99771C8.20989 7.24828 8.40677 7.44515 8.65733 7.44515V7.472C11.7626 7.67782 14.2414 10.1567 14.4472 13.2619H14.4741C14.4741 13.5125 14.671 13.7094 14.9215 13.7094H16.6934C16.944 13.7094 17.1588 13.4946 17.1498 13.244C16.9082 8.68009 13.2392 5.01106 8.67523 4.76944V4.76944ZM0.603357 5.65538C0.352789 5.65538 0.155914 5.85225 0.155914 6.10282V15.9466C0.155914 19.1503 2.76898 21.7633 5.97268 21.7633C9.17637 21.7633 11.7894 19.1503 11.7894 15.9466C11.7894 12.7429 9.17637 10.1298 5.97268 10.1298C5.72211 10.1298 5.52523 10.3267 5.52523 10.5773V13.2619C5.52523 13.5125 5.72211 13.7094 5.97268 13.7094C6.56602 13.7094 7.13507 13.9451 7.55463 14.3646C7.97419 14.7842 8.20989 15.3532 8.20989 15.9466C8.20989 16.5399 7.97419 17.109 7.55463 17.5285C7.13507 17.9481 6.56602 18.1838 5.97268 18.1838C5.67888 18.1838 5.38796 18.1259 5.11653 18.0135C4.8451 17.9011 4.59847 17.7363 4.39073 17.5285C4.18298 17.3208 4.01819 17.0742 3.90576 16.8027C3.79333 16.5313 3.73546 16.2404 3.73546 15.9466V6.10282C3.73546 5.85225 3.53858 5.65538 3.28802 5.65538H0.603357Z" fill="black"/>
</svg>
