<svg width="28" height="22" viewBox="0 0 28 22" fill="none" xmlns="http://www.w3.org/2000/svg">
<path d="M25.932 3.26905C25.932 2.79437 25.7434 2.33914 25.4078 2.00349C25.0721 1.66784 24.6169 1.47928 24.1422 1.47928H3.85812C3.38345 1.47928 2.92821 1.66784 2.59256 2.00349C2.25692 2.33914 2.06835 2.79437 2.06835 3.26905V8.63837H25.932V3.26905Z" stroke="black" stroke-width="2.72727" stroke-linecap="round" stroke-linejoin="round"/>
<path d="M2.13476 19.9914L9.39885 12.6534L13.3244 16.4119L18.1222 12.2179L20.7949 14.8238" stroke="black" stroke-width="2.72727" stroke-linecap="round" stroke-linejoin="round"/>
<path d="M25.9318 7.44513V18.7804C25.9318 19.255 25.7432 19.7103 25.4076 20.0459C25.072 20.3816 24.6167 20.5701 24.142 20.5701H6.8409" stroke="black" stroke-width="2.72727" stroke-linecap="round" stroke-linejoin="round"/>
<path d="M11.0836 5.05878H21.8223" stroke="black" stroke-width="2.72727" stroke-linecap="round" stroke-linejoin="round"/>
<path d="M6.30956 5.05878H7.50274" stroke="black" stroke-width="2.72727" stroke-linecap="round" stroke-linejoin="round"/>
<path d="M2.06818 7.44513V12.8144" stroke="black" stroke-width="2.72727" stroke-linecap="round" stroke-linejoin="round"/>
</svg>
