<svg width="25" height="25" viewBox="0 0 25 25" fill="none" xmlns="http://www.w3.org/2000/svg">
<path d="M17.3695 12.0743C17.3695 11.2629 17.2979 10.4754 17.2025 9.68791H21.2354C21.4263 10.4515 21.5456 11.251 21.5456 12.0743C21.5456 12.5158 21.5098 12.9453 21.4502 13.3629C22.2735 13.4822 23.0371 13.7447 23.7411 14.1265C23.8604 13.4584 23.932 12.7783 23.932 12.0743C23.932 5.51177 18.5627 0.142456 12.0002 0.142456C5.40188 0.142456 0.0683594 5.51177 0.0683594 12.0743C0.0683594 18.6368 5.43768 24.0061 12.0002 24.0061C12.7042 24.0061 13.3843 23.9345 14.0525 23.8152C13.4857 22.7758 13.1903 21.6104 13.1934 20.4265C13.1934 20.0805 13.2292 19.7464 13.2769 19.4123C12.8951 20.164 12.4775 20.8919 12.0002 21.572C11.0098 20.1402 10.2104 18.5533 9.7212 16.847H14.1598C14.8765 15.6017 15.954 14.6032 17.2502 13.9834C17.3218 13.351 17.3695 12.7186 17.3695 12.0743V12.0743ZM12.0002 2.56462C12.9905 3.99643 13.79 5.5953 14.2792 7.30155H9.7212C10.2104 5.5953 11.0098 3.99643 12.0002 2.56462V2.56462ZM2.76495 14.4606C2.57404 13.697 2.45472 12.8976 2.45472 12.0743C2.45472 11.251 2.57404 10.4515 2.76495 9.68791H6.7979C6.70245 10.4754 6.63086 11.2629 6.63086 12.0743C6.63086 12.8856 6.70245 13.6731 6.7979 14.4606H2.76495ZM3.74336 16.847H7.22745C7.64506 18.3385 8.182 19.7703 8.8979 21.0947C6.72467 20.345 4.8946 18.8369 3.74336 16.847V16.847ZM7.22745 7.30155H3.74336C4.88745 5.30561 6.7201 3.79537 8.8979 3.05382C8.182 4.37825 7.64506 5.81007 7.22745 7.30155ZM14.7922 14.4606H9.20813C9.08881 13.6731 9.01722 12.8856 9.01722 12.0743C9.01722 11.2629 9.08881 10.4635 9.20813 9.68791H14.7922C14.8996 10.4635 14.9831 11.2629 14.9831 12.0743C14.9831 12.8856 14.8996 13.6731 14.7922 14.4606ZM15.0905 3.05382C17.286 3.80552 19.1115 5.32086 20.257 7.30155H16.7371C16.3637 5.82374 15.8107 4.39722 15.0905 3.05382V3.05382ZM24.5286 18.3385L18.861 24.0061L15.5797 20.4265L16.9638 19.0425L18.861 20.9396L23.1445 16.6561L24.5286 18.3385V18.3385Z" fill="black"/>
</svg>
