<svg width="23" height="32" viewBox="0 0 23 32" fill="none" xmlns="http://www.w3.org/2000/svg">
<path d="M12.3839 13.7909C9.59603 13.7909 7.34777 11.5176 7.34777 8.69882C7.34777 5.88001 9.59603 3.60677 12.3839 3.60677C15.1717 3.60677 17.42 5.88001 17.42 8.69882C17.42 11.5176 15.1717 13.7909 12.3839 13.7909ZM12.3839 0.333313C7.79742 0.333313 4.11026 4.06142 4.11026 8.69882C4.11026 13.3362 7.79742 17.0643 12.3839 17.0643C16.9704 17.0643 20.6575 13.3362 20.6575 8.69882C20.6575 4.06142 16.9704 0.333313 12.3839 0.333313Z" fill="#050F94"/>
<path d="M15.0818 8.69883C15.0818 10.1537 13.9127 11.4267 12.3839 11.4267C10.945 11.4267 9.68594 10.2446 9.68594 8.69883C9.68594 7.24396 10.855 5.97095 12.3839 5.97095C13.8228 5.97095 15.0818 7.24396 15.0818 8.69883Z" fill="#4ABFD4"/>
<path d="M22.3661 25.1571C22.3661 28.5214 19.6682 31.1584 16.4307 31.1584H9.68592C8.60675 31.1584 7.70744 30.2491 7.70744 29.158C7.70744 28.0668 8.60675 27.1575 9.68592 27.1575H16.3408C17.42 27.1575 18.3193 26.2482 18.3193 25.1571C18.3193 24.0659 17.42 23.1566 16.3408 23.1566H5.8189C5.72896 23.1566 5.72896 23.1566 5.63903 23.1566C2.76125 22.9748 0.782776 20.8834 0.782776 17.8827C0.782776 16.7916 1.68208 15.8823 2.76125 15.8823C3.84042 15.8823 4.73973 16.7916 4.73973 17.8827C4.73973 19.1557 5.45917 19.1557 5.8189 19.1557H16.4307C19.6682 19.0648 22.3661 21.7927 22.3661 25.1571Z" fill="#050F94"/>
</svg>
