<svg width="22" height="21" viewBox="0 0 22 21" fill="none" xmlns="http://www.w3.org/2000/svg">
<path d="M1.75012 1.24989L3.83012 1.60989L4.79312 13.0829C4.87012 14.0199 5.65312 14.7389 6.59312 14.7359H17.5021C18.3991 14.7379 19.1601 14.0779 19.2871 13.1899L20.2361 6.63189C20.3421 5.89889 19.8331 5.21889 19.1011 5.11289C19.0371 5.10389 4.16412 5.09889 4.16412 5.09889" stroke="white" stroke-width="2" stroke-linecap="round" stroke-linejoin="round"/>
<path d="M13.1251 8.7948H15.8981" stroke="white" stroke-width="2" stroke-linecap="round" stroke-linejoin="round"/>
<path fill-rule="evenodd" clip-rule="evenodd" d="M6.15447 18.2025C6.45547 18.2025 6.69847 18.4465 6.69847 18.7465C6.69847 19.0475 6.45547 19.2915 6.15447 19.2915C5.85347 19.2915 5.61047 19.0475 5.61047 18.7465C5.61047 18.4465 5.85347 18.2025 6.15447 18.2025Z" fill="white" stroke="white" stroke-width="2" stroke-linecap="round" stroke-linejoin="round"/>
<path fill-rule="evenodd" clip-rule="evenodd" d="M17.4347 18.2025C17.7357 18.2025 17.9797 18.4465 17.9797 18.7465C17.9797 19.0475 17.7357 19.2915 17.4347 19.2915C17.1337 19.2915 16.8907 19.0475 16.8907 18.7465C16.8907 18.4465 17.1337 18.2025 17.4347 18.2025Z" fill="white" stroke="white" stroke-width="2" stroke-linecap="round" stroke-linejoin="round"/>
</svg>
