<svg width="24" height="27" viewBox="0 0 24 27" fill="none" xmlns="http://www.w3.org/2000/svg">
<path d="M22.0218 3.10106V0.237427H0.544502V3.10106H22.0218ZM22.0218 8.82834V5.9647H0.544502V8.82834H22.0218ZM6.27177 14.5556V11.692H0.544502V14.5556H6.27177ZM9.13541 11.692H22.0218C22.8093 11.692 23.4536 12.3363 23.4536 13.1238V24.5783C23.4536 25.3658 22.8093 26.0102 22.0218 26.0102H9.13541C8.34791 26.0102 7.70359 25.3658 7.70359 24.5783V13.1238C7.70359 12.3363 8.34791 11.692 9.13541 11.692ZM13.4309 21.7147L18.1988 18.8511L13.4309 15.9874V21.7147ZM6.27177 20.2829V17.4192H0.544502V20.2829H6.27177ZM6.27177 26.0102V23.1465H0.544502V26.0102H6.27177Z" fill="black"/>
</svg>
